<svg width="135" height="30" viewBox="0 0 135 30" fill="none" xmlns="http://www.w3.org/2000/svg">
<path d="M8.72344 4.44199C7.93594 3.83262 6.97031 3.4998 5.97656 3.4998C3.50156 3.4998 1.5 5.50137 1.5 7.97637V8.26699C1.5 9.00762 1.67344 9.73418 2.00156 10.3998L3.10312 12.6076C3.31406 13.0248 3.45937 13.4701 3.54375 13.9295L5.26406 23.5764C5.35781 24.1014 5.80781 24.4857 6.3375 24.5045C6.86719 24.5232 7.34062 24.1576 7.4625 23.642L8.81719 17.9561C9.00938 17.1732 9.70312 16.6248 10.5 16.6248C11.2969 16.6248 11.9906 17.1732 12.1781 17.9514L13.5328 23.6373C13.6547 24.1576 14.1281 24.5186 14.6578 24.4998C15.1875 24.4811 15.6375 24.0967 15.7313 23.5717L17.4516 13.9248C17.5359 13.4654 17.6813 13.0201 17.8922 12.6029L18.9938 10.3951C19.3266 9.73418 19.4953 9.00293 19.4953 8.2623V8.16387C19.4953 5.58574 17.4047 3.49512 14.8266 3.49512C13.6969 3.49512 12.6047 3.90762 11.7516 4.64824L11.6016 4.77949L12.5156 5.49199C12.8438 5.74512 12.9 6.21855 12.6469 6.54668C12.3937 6.8748 11.9203 6.93105 11.5922 6.67793L10.4484 5.7873L8.71406 4.4373L8.72344 4.44199Z" fill="currentColor"/>
<path d="M39.25 21H34.7614V6.45455H39.4489C40.8598 6.45455 42.0672 6.74574 43.071 7.32812C44.0748 7.90578 44.8442 8.73674 45.3793 9.82102C45.9143 10.9006 46.1818 12.1932 46.1818 13.6989C46.1818 15.214 45.9119 16.5185 45.3722 17.6122C44.8324 18.7012 44.0464 19.5393 43.0142 20.1264C41.982 20.7088 40.7273 21 39.25 21ZM36.5227 19.4375H39.1364C40.339 19.4375 41.3357 19.2055 42.1264 18.7415C42.9171 18.2775 43.5066 17.617 43.8949 16.7599C44.2831 15.9029 44.4773 14.8826 44.4773 13.6989C44.4773 12.5246 44.2855 11.5137 43.902 10.6662C43.5185 9.81392 42.9455 9.16051 42.1832 8.70597C41.4209 8.24669 40.4716 8.01705 39.3352 8.01705H36.5227V19.4375ZM53.483 21.2273C52.4318 21.2273 51.5251 20.9953 50.7628 20.5312C50.0052 20.0625 49.4205 19.4091 49.0085 18.571C48.6013 17.7282 48.3977 16.7481 48.3977 15.6307C48.3977 14.5133 48.6013 13.5284 49.0085 12.6761C49.4205 11.8191 49.9934 11.1515 50.7273 10.6733C51.4659 10.1903 52.3277 9.94886 53.3125 9.94886C53.8807 9.94886 54.4418 10.0436 54.9957 10.233C55.5497 10.4223 56.054 10.7301 56.5085 11.1562C56.9631 11.5777 57.3253 12.1364 57.5952 12.8324C57.8651 13.5284 58 14.3854 58 15.4034V16.1136H49.5909V14.6648H56.2955C56.2955 14.0492 56.1723 13.5 55.9261 13.017C55.6847 12.5341 55.339 12.1529 54.8892 11.8736C54.4441 11.5942 53.9186 11.4545 53.3125 11.4545C52.6449 11.4545 52.0672 11.6203 51.5795 11.9517C51.0966 12.2784 50.7249 12.7045 50.4645 13.2301C50.2041 13.7557 50.0739 14.3191 50.0739 14.9205V15.8864C50.0739 16.7102 50.2159 17.4086 50.5 17.9815C50.7888 18.5497 51.1889 18.983 51.7003 19.2812C52.2116 19.5748 52.8059 19.7216 53.483 19.7216C53.9233 19.7216 54.321 19.66 54.6761 19.5369C55.036 19.4091 55.3461 19.2197 55.6065 18.9688C55.867 18.7131 56.0682 18.3958 56.2102 18.017L57.8295 18.4716C57.6591 19.0208 57.3726 19.5038 56.9702 19.9205C56.5677 20.3324 56.0705 20.6544 55.4787 20.8864C54.8868 21.1136 54.2216 21.2273 53.483 21.2273ZM62.2259 14.4375V21H60.5497V10.0909H62.169V11.7955H62.3111C62.5668 11.2415 62.955 10.7964 63.4759 10.4602C63.9967 10.1193 64.669 9.94886 65.4929 9.94886C66.2315 9.94886 66.8778 10.1004 67.4318 10.4034C67.9858 10.7017 68.4167 11.1562 68.7244 11.767C69.0322 12.3731 69.1861 13.1402 69.1861 14.0682V21H67.5099V14.1818C67.5099 13.3248 67.2874 12.6572 66.8423 12.179C66.3973 11.696 65.7865 11.4545 65.0099 11.4545C64.4749 11.4545 63.9967 11.5705 63.5753 11.8026C63.1586 12.0346 62.8295 12.3731 62.5881 12.8182C62.3466 13.2633 62.2259 13.803 62.2259 14.4375ZM76.9933 10.0909V11.5114H71.3398V10.0909H76.9933ZM72.9876 7.47727H74.6637V17.875C74.6637 18.3485 74.7324 18.7036 74.8697 18.9403C75.0117 19.1723 75.1916 19.3286 75.4094 19.4091C75.632 19.4848 75.8664 19.5227 76.1126 19.5227C76.2972 19.5227 76.4487 19.5133 76.5671 19.4943C76.6855 19.4706 76.7802 19.4517 76.8512 19.4375L77.1921 20.9432C77.0785 20.9858 76.9199 21.0284 76.7163 21.071C76.5127 21.1184 76.2546 21.142 75.9421 21.142C75.4686 21.142 75.0046 21.0402 74.5501 20.8366C74.1003 20.633 73.7262 20.3229 73.4279 19.9062C73.1344 19.4896 72.9876 18.964 72.9876 18.3295V7.47727ZM82.7248 21.2557C82.0335 21.2557 81.4061 21.1255 80.8427 20.8651C80.2792 20.5999 79.8318 20.2188 79.5004 19.7216C79.1689 19.2197 79.0032 18.6136 79.0032 17.9034C79.0032 17.2784 79.1263 16.7718 79.3725 16.3835C79.6187 15.9905 79.9478 15.6828 80.3597 15.4602C80.7717 15.2377 81.2262 15.072 81.7234 14.9631C82.2253 14.8494 82.7295 14.7595 83.2362 14.6932C83.899 14.608 84.4364 14.544 84.8484 14.5014C85.265 14.4541 85.5681 14.3759 85.7575 14.267C85.9516 14.1581 86.0487 13.9687 86.0487 13.6989V13.642C86.0487 12.9413 85.8569 12.3968 85.4734 12.0085C85.0946 11.6203 84.5193 11.4261 83.7475 11.4261C82.9473 11.4261 82.32 11.6013 81.8654 11.9517C81.4109 12.3021 81.0913 12.6761 80.9066 13.0739L79.3157 12.5057C79.5998 11.8428 79.9786 11.3267 80.4521 10.9574C80.9303 10.5833 81.4511 10.3229 82.0146 10.1761C82.5827 10.0246 83.1415 9.94886 83.6907 9.94886C84.0411 9.94886 84.4435 9.99148 84.8981 10.0767C85.3574 10.1572 85.8001 10.3253 86.2262 10.581C86.6571 10.8366 87.0146 11.2225 87.2987 11.7386C87.5827 12.2547 87.7248 12.946 87.7248 13.8125V21H86.0487V19.5227H85.9634C85.8498 19.7595 85.6604 20.0128 85.3952 20.2827C85.1301 20.5526 84.7773 20.7822 84.337 20.9716C83.8967 21.161 83.3593 21.2557 82.7248 21.2557ZM82.9805 19.75C83.6433 19.75 84.2021 19.6198 84.6566 19.3594C85.1159 19.099 85.4615 18.7628 85.6935 18.3509C85.9303 17.9389 86.0487 17.5057 86.0487 17.0511V15.517C85.9776 15.6023 85.8214 15.6804 85.5799 15.7514C85.3432 15.8177 85.0685 15.8769 84.756 15.929C84.4483 15.9763 84.1476 16.0189 83.854 16.0568C83.5652 16.09 83.3308 16.1184 83.1509 16.142C82.7153 16.1989 82.3081 16.2912 81.9293 16.419C81.5553 16.5421 81.2522 16.7292 81.0202 16.9801C80.793 17.2263 80.6793 17.5625 80.6793 17.9886C80.6793 18.571 80.8948 19.0114 81.3256 19.3097C81.7612 19.6032 82.3129 19.75 82.9805 19.75ZM92.4602 6.45455V21H90.7841V6.45455H92.4602ZM98.3995 21L94.4222 6.45455H96.212L99.2518 18.3011H99.3938L102.49 6.45455H104.479L107.576 18.3011H107.718L110.757 6.45455H112.547L108.57 21H106.752L103.542 9.40909H103.428L100.218 21H98.3995ZM118.073 21.2273C117.022 21.2273 116.115 20.9953 115.353 20.5312C114.595 20.0625 114.01 19.4091 113.598 18.571C113.191 17.7282 112.988 16.7481 112.988 15.6307C112.988 14.5133 113.191 13.5284 113.598 12.6761C114.01 11.8191 114.583 11.1515 115.317 10.6733C116.056 10.1903 116.917 9.94886 117.902 9.94886C118.471 9.94886 119.032 10.0436 119.586 10.233C120.14 10.4223 120.644 10.7301 121.098 11.1562C121.553 11.5777 121.915 12.1364 122.185 12.8324C122.455 13.5284 122.59 14.3854 122.59 15.4034V16.1136H114.181V14.6648H120.885C120.885 14.0492 120.762 13.5 120.516 13.017C120.275 12.5341 119.929 12.1529 119.479 11.8736C119.034 11.5942 118.508 11.4545 117.902 11.4545C117.235 11.4545 116.657 11.6203 116.169 11.9517C115.686 12.2784 115.315 12.7045 115.054 13.2301C114.794 13.7557 114.664 14.3191 114.664 14.9205V15.8864C114.664 16.7102 114.806 17.4086 115.09 17.9815C115.379 18.5497 115.779 18.983 116.29 19.2812C116.801 19.5748 117.396 19.7216 118.073 19.7216C118.513 19.7216 118.911 19.66 119.266 19.5369C119.626 19.4091 119.936 19.2197 120.196 18.9688C120.457 18.7131 120.658 18.3958 120.8 18.017L122.419 18.4716C122.249 19.0208 121.962 19.5038 121.56 19.9205C121.158 20.3324 120.66 20.6544 120.069 20.8864C119.477 21.1136 118.811 21.2273 118.073 21.2273ZM125.367 21V6.45455H127.043V11.8239H127.185C127.308 11.6345 127.479 11.393 127.696 11.0994C127.919 10.8011 128.236 10.536 128.648 10.304C129.065 10.0672 129.628 9.94886 130.338 9.94886C131.257 9.94886 132.067 10.1785 132.767 10.6378C133.468 11.0971 134.015 11.7481 134.408 12.5909C134.801 13.4337 134.998 14.428 134.998 15.5739C134.998 16.7292 134.801 17.7306 134.408 18.5781C134.015 19.4209 133.471 20.0743 132.775 20.5384C132.078 20.9976 131.276 21.2273 130.367 21.2273C129.666 21.2273 129.105 21.1113 128.684 20.8793C128.262 20.6425 127.938 20.375 127.711 20.0767C127.483 19.7737 127.308 19.5227 127.185 19.3239H126.986V21H125.367ZM127.015 15.5455C127.015 16.3693 127.135 17.0961 127.377 17.7259C127.618 18.3509 127.971 18.8409 128.435 19.196C128.899 19.5464 129.467 19.7216 130.14 19.7216C130.84 19.7216 131.425 19.5369 131.894 19.1676C132.367 18.7936 132.722 18.2917 132.959 17.6619C133.201 17.0275 133.321 16.322 133.321 15.5455C133.321 14.7784 133.203 14.0871 132.966 13.4716C132.734 12.8513 132.382 12.3613 131.908 12.0014C131.439 11.6368 130.85 11.4545 130.14 11.4545C129.458 11.4545 128.885 11.6274 128.421 11.973C127.957 12.3139 127.606 12.7921 127.37 13.4077C127.133 14.0185 127.015 14.7311 127.015 15.5455Z" fill="currentColor"/>
</svg>
